<svg xmlns="http://www.w3.org/2000/svg" viewBox="0 0 84 92" role="img" aria-label="Kamadhenu emblem"><circle cx="34" cy="62" r="5.5" fill="#fbf7ef" stroke="#b07d18" stroke-width="1.4"/><circle cx="44" cy="62" r="5.5" fill="#fbf7ef" stroke="#b07d18" stroke-width="1.4"/><circle cx="54" cy="62" r="5.5" fill="#fbf7ef" stroke="#b07d18" stroke-width="1.4"/><circle cx="29" cy="71" r="5.5" fill="#fbf7ef" stroke="#b07d18" stroke-width="1.4"/><circle cx="39" cy="71" r="5.5" fill="#fbf7ef" stroke="#b07d18" stroke-width="1.4"/><circle cx="49" cy="71" r="5.5" fill="#fbf7ef" stroke="#b07d18" stroke-width="1.4"/><circle cx="59" cy="71" r="5.5" fill="#fbf7ef" stroke="#b07d18" stroke-width="1.4"/><circle cx="24" cy="80" r="5.5" fill="#fbf7ef" stroke="#b07d18" stroke-width="1.4"/><circle cx="24" cy="80" r="3.0" fill="none" stroke="#b07d18" stroke-width="1"/><circle cx="24" cy="80" r="0.9" fill="#b07d18"/><circle cx="34" cy="80" r="5.5" fill="#fbf7ef" stroke="#b07d18" stroke-width="1.4"/><circle cx="34" cy="80" r="3.0" fill="none" stroke="#b07d18" stroke-width="1"/><circle cx="34" cy="80" r="0.9" fill="#b07d18"/><circle cx="44" cy="80" r="5.5" fill="#fbf7ef" stroke="#b07d18" stroke-width="1.4"/><circle cx="44" cy="80" r="3.0" fill="none" stroke="#b07d18" stroke-width="1"/><circle cx="44" cy="80" r="0.9" fill="#b07d18"/><circle cx="54" cy="80" r="5.5" fill="#fbf7ef" stroke="#b07d18" stroke-width="1.4"/><circle cx="54" cy="80" r="3.0" fill="none" stroke="#b07d18" stroke-width="1"/><circle cx="54" cy="80" r="0.9" fill="#b07d18"/><circle cx="64" cy="80" r="5.5" fill="#fbf7ef" stroke="#b07d18" stroke-width="1.4"/><circle cx="64" cy="80" r="3.0" fill="none" stroke="#b07d18" stroke-width="1"/><circle cx="64" cy="80" r="0.9" fill="#b07d18"/>
<g fill="none" stroke="#c2871d" stroke-width="2.3" stroke-linecap="round" stroke-linejoin="round">
  <path d="M20 18 C 20 33, 31 37, 42 37 C 53 37, 64 33, 64 18"/>
  <path d="M20 18 C 19 14, 20 12, 22 11"/>
  <path d="M64 18 C 65 14, 64 12, 62 11"/>
</g>
<circle cx="42" cy="23" r="4.5" fill="#7c2433"/>
<g fill="#2f6b4d" fill-opacity="0.10" stroke="#2f6b4d" stroke-width="2.3" stroke-linecap="round" stroke-linejoin="round">
  <path d="M42 40 Q 49 50 42 60 Q 35 50 42 40 Z"/>
  <path d="M42 40 Q 54 49 56 60 Q 46 50 42 40 Z"/>
  <path d="M42 40 Q 30 49 28 60 Q 38 50 42 40 Z"/>
  <path d="M42 40 Q 58 43 64 52 Q 50 47 42 40 Z"/>
  <path d="M42 40 Q 26 43 20 52 Q 34 47 42 40 Z"/>
</g></svg>