<svg xmlns="http://www.w3.org/2000/svg" viewBox="0 0 100 94" fill="none" stroke="#c2871d" stroke-width="4" stroke-linecap="round" stroke-linejoin="round" role="img" aria-label="Kamadhenu, the sacred cow">
  <path d="M40 32 C 30 26, 20 24, 14 14"/>
  <path d="M60 32 C 70 26, 80 24, 86 14"/>
  <path d="M44 28 L 45.5 21 L 50 26 L 54.5 21 L 56 28"/>
  <path d="M40 32 C 45 27, 55 27, 60 32"/>
  <path d="M40 33 C 33 41, 32 55, 42 63 C 45 67, 55 67, 58 63 C 68 55, 67 41, 60 33"/>
  <path d="M34 46 C 26 43, 19 46, 17 52 C 23 52, 31 51, 35 48"/>
  <path d="M66 46 C 74 43, 81 46, 83 52 C 77 52, 69 51, 65 48"/>
  <path d="M42 47 C 44 50, 47 50, 49 47"/>
  <path d="M51 47 C 53 50, 56 50, 58 47"/>
  <path d="M44 57 C 46 62, 54 62, 56 57"/>
  <path d="M50 33 L 50 39"/>
</svg>
